<?xml version="1.0" encoding="utf-8"?>
<!-- Generator: Adobe Illustrator 25.2.3, SVG Export Plug-In . SVG Version: 6.00 Build 0)  -->
<svg version="1.1" id="Layer_1" xmlns="http://www.w3.org/2000/svg" xmlns:xlink="http://www.w3.org/1999/xlink" x="0px" y="0px"
	 viewBox="0 0 88.7 31.2" style="enable-background:new 0 0 88.7 31.2;" xml:space="preserve">
<style type="text/css">
	.st0{fill:#FFFFFF;}
</style>
<g transform="translate(0 0.1)">
	<path class="st0" d="M6.2,13.6c-0.5,0.7-1.2,1.1-2,1.3c0.8,0.2,1.5,0.7,2,1.3c0.4,0.8,0.6,1.6,0.6,2.5v7c0,0.5,0.1,1,0.5,1.4
		c0.4,0.3,0.9,0.5,1.4,0.5h1.7v3.3C9.6,31,8.8,31.1,8,31.1c-1.5,0.1-3-0.4-4.2-1.4c-1-1.1-1.5-2.5-1.4-4v-7.2c0.1-0.5-0.1-1-0.5-1.3
		c-0.4-0.3-0.8-0.5-1.3-0.5H0v-3.4h0.7c0.5,0,1-0.1,1.3-0.5c0.3-0.4,0.5-0.8,0.5-1.3V5.3c-0.1-1.5,0.4-2.9,1.4-4C5,0.3,6.5-0.2,8,0
		C8.8,0,9.6,0,10.4,0.2v3.3H8.7c-0.5-0.1-1,0.1-1.4,0.5C6.9,4.3,6.7,4.8,6.8,5.3v5.8C6.8,12,6.6,12.8,6.2,13.6z"/>
	<path class="st0" d="M11.4,8h3.5l0.3,2.2h0.2c0.6-1.6,2.1-2.6,3.8-2.5c0.4,0,0.7,0.1,1,0.1v4c-0.5-0.1-0.9-0.1-1.4-0.1
		c-0.7,0-1.3,0.1-1.9,0.5c-0.6,0.2-1,0.7-1.4,1.2v10.8h-4.3L11.4,8L11.4,8z"/>
	<path class="st0" d="M22.9,22.5c-1.2-1.4-1.7-3.5-1.7-6.3c0-5.6,2.2-8.4,6.8-8.4c1.9-0.1,3.7,0.7,5,2.1c1.2,1.4,1.8,3.5,1.8,6.3
		c0,5.6-2.2,8.3-6.8,8.3C26,24.6,24.2,23.9,22.9,22.5z M29.2,20.9c0.4-0.4,0.7-0.9,0.8-1.5c0.2-1,0.3-2,0.3-3.1
		c0-1.1-0.1-2.2-0.3-3.2c-0.1-0.6-0.4-1.1-0.8-1.6c-0.4-0.3-0.8-0.5-1.3-0.5c-0.5,0-0.9,0.1-1.3,0.5c-0.4,0.4-0.7,1-0.8,1.6
		c-0.2,1-0.2,2.1-0.2,3.1c0,1.1,0,2.1,0.3,3.1c0.1,0.6,0.4,1.1,0.8,1.5c0.4,0.3,0.8,0.4,1.3,0.4C28.4,21.3,28.8,21.1,29.2,20.9
		L29.2,20.9z"/>
	<path class="st0" d="M38.3,22.5c-1.2-1.4-1.8-3.5-1.8-6.4s0.7-5.1,2-6.4c1.6-1.4,3.6-2.1,5.7-2c1,0,1.9,0.1,2.9,0.3v3.5
		c-0.7-0.1-1.4-0.2-2.1-0.2c-0.8,0-1.6,0.1-2.3,0.5c-0.6,0.3-1,0.8-1.3,1.4c-0.3,0.9-0.5,1.8-0.4,2.8c0,1,0.1,2,0.4,2.9
		c0.2,0.6,0.6,1.2,1.2,1.5c0.6,0.3,1.3,0.5,2,0.5c0.9,0,1.7-0.2,2.5-0.5V24c-1.1,0.4-2.3,0.6-3.5,0.5C41.6,24.6,39.7,23.9,38.3,22.5
		z"/>
	<path class="st0" d="M58.8,7.7c-0.8,0-1.5,0.2-2.2,0.5c-0.3,0.2-0.5,0.3-0.8,0.5l1.1-5.3h-4.1l-4.1,20.7h4.1l2.4-11.7
		c0.2-0.2,0.5-0.4,0.7-0.5c0.4-0.2,0.8-0.3,1.2-0.3c0.5,0,1,0.2,1.3,0.5c0.4,0.5,0.5,1.1,0.5,1.7v10.4h4.3V13.4
		c0.1-1.5-0.3-3.1-1.2-4.3C61.2,8.2,60.1,7.7,58.8,7.7z"/>
	<path class="st0" d="M74.7,8.4c0.9,0.4,1.7,1.1,2.1,2c0.5,1.2,0.7,2.5,0.7,3.8v10h-3.5l-0.3-1.7h-0.2c-0.3,0.6-0.9,1.2-1.5,1.5
		c-0.7,0.3-1.4,0.5-2.2,0.5c-0.8,0-1.6-0.2-2.4-0.6c-0.7-0.4-1.2-0.9-1.6-1.6c-0.4-0.8-0.6-1.6-0.6-2.5c-0.1-1.4,0.4-2.7,1.4-3.6
		c1.3-1,2.9-1.5,4.5-1.5l2-0.2v-0.5c0-0.6-0.1-1.1-0.3-1.6c-0.2-0.4-0.6-0.7-1-0.9c-0.6-0.2-1.2-0.3-1.8-0.3c-0.6,0-1.2,0.1-1.8,0.1
		c-0.6,0.1-1.3,0.3-1.9,0.5V8.3c0.7-0.2,1.5-0.3,2.2-0.4c0.8-0.1,1.6-0.1,2.4-0.1C72.2,7.7,73.5,7.9,74.7,8.4z M72.3,21
		c0.4-0.2,0.7-0.4,0.9-0.8V17l-1.5,0.1c-0.6,0-1.2,0.2-1.7,0.7c-0.4,0.4-0.6,0.9-0.6,1.5c-0.1,0.5,0.1,1,0.5,1.4
		c0.4,0.3,0.8,0.5,1.3,0.5C71.6,21.2,72,21.1,72.3,21L72.3,21z"/>
	<path class="st0" d="M88.7,13.2v3.4H88c-0.5,0-1,0.1-1.3,0.5c-0.3,0.4-0.5,0.8-0.5,1.3v7.2c0.1,1.5-0.4,2.9-1.4,4
		c-1.2,1-2.7,1.5-4.2,1.4c-0.8,0-1.6-0.1-2.4-0.2v-3.3H80c0.5,0.1,1-0.1,1.4-0.5c0.4-0.4,0.5-0.9,0.5-1.4v-6.9
		c0-0.9,0.2-1.7,0.6-2.5c0.5-0.7,1.2-1.2,2-1.4c-0.8-0.2-1.5-0.7-2-1.4c-0.4-0.8-0.6-1.6-0.6-2.5V5.2c0-0.5-0.1-1-0.5-1.4
		c-0.4-0.3-0.9-0.5-1.4-0.5h-1.7V0.1c0.8-0.1,1.6-0.2,2.4-0.2c1.5-0.1,3,0.4,4.2,1.4c1,1.1,1.5,2.5,1.4,4v6c-0.1,0.5,0.1,1,0.5,1.3
		c0.4,0.3,0.8,0.5,1.3,0.5L88.7,13.2L88.7,13.2z"/>
</g>
</svg>
